<svg width="18" height="18" viewBox="0 0 18 18" fill="none" xmlns="http://www.w3.org/2000/svg">
<g opacity="0.5">
<path d="M8.99804 1.51062C5.68454 1.51062 2.99805 4.19712 2.99805 7.51062C2.99805 10.1109 4.68405 13.0696 6.95879 15.5266C7.03229 15.6054 7.0923 15.6669 7.16955 15.7374C7.8138 16.3141 8.48129 16.5181 8.99804 16.5106C9.00479 16.5106 9.01604 16.5106 9.02129 16.5106C9.55979 16.5106 10.3188 16.2684 11.0373 15.5499C13.2198 13.3674 14.998 10.1491 14.998 7.51062C14.998 4.19712 12.3115 1.51062 8.99804 1.51062ZM8.99804 5.26062C10.2408 5.26062 11.248 6.26787 11.248 7.51062C11.248 8.75337 10.2408 9.76062 8.99804 9.76062C7.75529 9.76062 6.74804 8.75337 6.74804 7.51062C6.74804 6.26787 7.75529 5.26062 8.99804 5.26062Z" fill="#041A1A"/>
</g>
</svg>
