<svg width="135" height="34" viewBox="0 0 135 34" fill="none" xmlns="http://www.w3.org/2000/svg">
<path fill-rule="evenodd" clip-rule="evenodd" d="M7.21884 1.34235V27.3505C7.19087 27.7979 7.42019 28.6928 8.56119 28.6928H51.3487C51.8242 28.6928 52.7582 28.3908 52.6911 27.1827V1.51015C52.747 1.11863 52.5401 0.268471 51.2649 0H8.4773C7.97391 0.0838972 7.01749 0.469824 7.21884 1.34235ZM9.56786 2.26521V26.3437H50.3419V2.34911L9.56786 2.26521Z" fill="#116466"/>
<path d="M10.4902 25.3369V3.27197H49.4185V25.3369H10.4902Z" fill="#116466"/>
<path d="M25.7595 30.4548H0.00308163V32.2167C-0.0640361 33.2906 0.981882 33.5031 1.51323 33.4751H58.3955C59.3352 33.3409 59.7379 32.6921 59.8218 32.3845V30.4548H33.9814C34.1828 31.1931 33.8975 31.6014 33.7297 31.7133H26.4307C25.6924 31.7804 25.6756 30.9023 25.7595 30.4548Z" fill="#116466"/>
<path fill-rule="evenodd" clip-rule="evenodd" d="M29.7038 8.80906V7.55061L21.1463 7.38281C19.8598 7.77433 16.9178 9.17821 15.4412 11.6616C14.826 12.6963 13.9311 15.3363 15.2734 17.6183C15.8048 18.7649 17.589 21.0748 20.4751 21.1419H29.2843C29.4521 20.7784 29.838 20.0177 30.0394 19.8835C29.9275 19.7157 29.3682 19.313 28.0258 19.0445V9.98362L29.7038 8.80906ZM24.1659 9.31248V19.2123C23.5507 19.464 22.035 19.7325 20.894 18.7929C20.3346 18.3454 19.1657 17.0814 18.9643 15.6048C18.7126 13.759 18.7965 12.165 19.2999 11.326C19.8033 10.487 21.0617 9.31248 21.649 9.31248C21.9567 9.22858 22.8907 9.11113 24.1659 9.31248Z" fill="white"/>
<path fill-rule="evenodd" clip-rule="evenodd" d="M30.1221 8.89321L30.7932 7.46695L39.6025 7.38306C40.6372 7.52289 42.9416 8.13813 43.8812 9.48049C44.2727 9.92794 45.1229 11.2088 45.3914 12.7525C45.7269 14.6821 45.2236 16.444 44.4685 17.3668C44.4035 17.4462 44.3336 17.535 44.2576 17.6314C43.4505 18.6552 41.9623 20.5432 38.5118 21.31L30.4577 21.1422V19.8837L32.0517 18.7092V9.48049L30.1221 8.89321ZM35.9943 9.39659V19.1287C36.5536 19.3804 37.9575 19.7159 39.0985 19.0448C40.5248 18.2058 41.1959 16.3601 41.1959 16.2762C41.1959 16.2669 41.2032 16.2493 41.2149 16.2209C41.3086 15.9929 41.6902 15.0651 40.9443 12.0813C40.7485 11.3542 39.8536 9.74896 37.8401 9.1449C37.3646 9.11693 36.3299 9.12812 35.9943 9.39659Z" fill="white"/>
<path fill-rule="evenodd" clip-rule="evenodd" d="M67.3252 3.30762V4.14659H68.6676C68.9472 4.25845 69.5065 4.68353 69.5065 5.48894V18.3252C69.5345 18.6888 69.3555 19.4159 68.4159 19.4159H67.3252V20.3387L77.3929 20.1709C78.4556 19.9472 80.9501 19.0467 82.4267 17.2345C82.986 16.7032 84.155 15.0364 84.3563 12.6202C84.608 9.59991 83.8529 8.00586 82.9301 6.49571C82.0072 4.98556 80.2454 3.8949 77.0573 3.30762H67.3252ZM73.5334 4.64998V18.7447C73.9249 19.1083 75.0603 19.7179 76.4698 19.2481C78.2316 18.6608 79.4901 16.899 79.7418 15.1371C79.9935 13.3753 80.2452 10.1033 79.7418 8.17366C79.2384 6.24403 77.8121 4.31439 75.9664 4.1466C74.4898 4.01236 73.7291 4.42626 73.5334 4.64998Z" fill="#116466"/>
<path d="M95.4302 3.30737H86.5371V4.06245H87.7956C88.4667 4.06245 88.8583 4.67769 88.9701 4.98532C88.9981 8.92848 89.0372 17.0665 88.9701 18.0733C88.903 19.08 88.3269 19.3877 88.0473 19.4156L86.5371 19.4995V20.2546H95.4302V19.4156H94.2556C93.3831 19.4156 93.165 18.8004 93.165 18.4928V5.23701C93.165 4.4316 93.7802 4.17431 94.0879 4.14634H95.4302V3.30737Z" fill="#116466"/>
<path fill-rule="evenodd" clip-rule="evenodd" d="M97.1914 4.14634V3.30737H106.756C109.172 3.64296 109.944 4.17431 110.028 4.39804C111.638 5.06921 111.65 7.08275 111.454 8.00561C110.917 10.0863 108.769 10.7183 107.762 10.7742V11.2776C109.44 11.2776 110.755 12.2844 111.202 12.7878C112.813 14.4657 112.377 16.4513 111.957 17.2343C111.152 18.9794 108.545 19.8631 107.343 20.0868L97.2753 20.2546V19.4995H98.4499C99.121 19.4324 99.4007 18.8004 99.4566 18.4928V5.74039C99.7251 4.73362 98.9532 4.25821 98.5338 4.14634H97.1914ZM103.4 4.73376V10.8583C103.668 10.8583 104.91 10.7464 105.497 10.6905C106.974 10.2878 107.343 9.29217 107.343 8.84472V6.07611C107.142 5.00223 106.364 4.39817 106.001 4.23037C104.457 3.69343 103.623 4.34224 103.4 4.73376ZM103.4 11.6133V18.6606C103.54 19.0242 104.188 19.701 105.665 19.4996C106.336 19.3598 107.729 18.711 107.93 17.2344C108.098 16.0319 108.215 13.4758 107.343 12.8717C107.091 12.5082 106.336 11.7475 105.329 11.6133H103.4Z" fill="#116466"/>
<path fill-rule="evenodd" clip-rule="evenodd" d="M120.265 3.89483C121.44 3.27959 124.611 2.3679 127.9 3.64314C128.99 4.09059 131.491 5.80768 132.766 9.09645C133.157 10.5786 133.538 14.1638 131.927 16.6472C131.367 17.598 129.594 19.6843 126.977 20.4226C125.886 20.6743 123.101 20.9595 120.685 20.087C119.258 19.4158 116.322 17.5029 115.986 15.2209C115.455 13.8506 114.711 10.4891 115.986 8.00579C116.63 6.80327 118.386 4.29754 120.265 3.89483ZM123.033 3.97857C124.263 3.64298 126.942 3.72688 127.815 6.74717C128.458 8.34122 129.426 12.5193 128.151 16.4792C127.815 17.7377 126.473 20.1875 123.788 19.919C122.585 19.8072 120.147 18.7109 120.013 15.2208C119.761 13.0115 119.509 8.22376 120.516 6.74717C120.935 5.86769 122.026 4.08269 123.033 3.97857Z" fill="#116466"/>
<path d="M69.0199 27.3607C68.5948 27.769 68.0998 27.9731 67.5349 27.9731C66.9532 27.9731 66.4582 27.769 66.0499 27.3607C65.6416 26.9524 65.4375 26.4574 65.4375 25.8757C65.4375 25.294 65.6416 24.799 66.0499 24.3907C66.4582 23.9824 66.9532 23.7783 67.5349 23.7783C68.0998 23.7783 68.5948 23.9824 69.0199 24.3907C69.0814 24.4578 69.1122 24.5389 69.1122 24.634C69.1122 24.7235 69.0814 24.8018 69.0199 24.8689C68.9528 24.9304 68.8717 24.9612 68.7766 24.9612C68.6871 24.9612 68.6088 24.9304 68.5417 24.8689C68.262 24.5893 67.9264 24.4494 67.5349 24.4494C67.1434 24.4494 66.8078 24.5893 66.5282 24.8689C66.2485 25.1486 66.1087 25.4842 66.1087 25.8757C66.1087 26.2672 66.2485 26.6028 66.5282 26.8825C66.8078 27.1621 67.1434 27.3019 67.5349 27.3019C67.9264 27.3019 68.262 27.1621 68.5417 26.8825C68.6088 26.8209 68.6871 26.7902 68.7766 26.7902C68.8717 26.7902 68.9528 26.8209 69.0199 26.8825C69.0814 26.9496 69.1122 27.0307 69.1122 27.1258C69.1122 27.2152 69.0814 27.2936 69.0199 27.3607Z" fill="black"/>
<path d="M76.9066 27.3607C76.4983 27.769 76.0033 27.9731 75.4216 27.9731C74.84 27.9731 74.345 27.769 73.9367 27.3607C73.5284 26.9524 73.3242 26.4574 73.3242 25.8757C73.3242 25.294 73.5284 24.799 73.9367 24.3907C74.345 23.9824 74.84 23.7783 75.4216 23.7783C76.0033 23.7783 76.4983 23.9824 76.9066 24.3907C77.3149 24.799 77.5191 25.294 77.5191 25.8757C77.5191 26.4574 77.3149 26.9524 76.9066 27.3607ZM74.4149 26.8825C74.6945 27.1621 75.0301 27.3019 75.4216 27.3019C75.8132 27.3019 76.1488 27.1621 76.4284 26.8825C76.7081 26.6028 76.8479 26.2672 76.8479 25.8757C76.8479 25.4842 76.7081 25.1486 76.4284 24.8689C76.1488 24.5893 75.8132 24.4494 75.4216 24.4494C75.0301 24.4494 74.6945 24.5893 74.4149 24.8689C74.1352 25.1486 73.9954 25.4842 73.9954 25.8757C73.9954 26.2672 74.1352 26.6028 74.4149 26.8825Z" fill="black"/>
<path d="M87.7545 27.6375V25.624C87.7545 25.2996 87.6398 25.0227 87.4105 24.7934C87.1812 24.5641 86.9043 24.4494 86.5799 24.4494C86.2555 24.4494 85.9786 24.5641 85.7493 24.7934C85.52 25.0227 85.4053 25.2996 85.4053 25.624V27.6375C85.4053 27.7326 85.3718 27.8137 85.3047 27.8808C85.2431 27.9424 85.1648 27.9731 85.0698 27.9731C84.9747 27.9731 84.8936 27.9424 84.8265 27.8808C84.7649 27.8137 84.7342 27.7326 84.7342 27.6375V25.624C84.7342 25.2996 84.6195 25.0227 84.3902 24.7934C84.1609 24.5641 83.884 24.4494 83.5596 24.4494C83.2352 24.4494 82.9583 24.5641 82.729 24.7934C82.4997 25.0227 82.385 25.2996 82.385 25.624V27.6375C82.385 27.7326 82.3515 27.8137 82.2844 27.8808C82.2228 27.9424 82.1445 27.9731 82.0495 27.9731C81.9544 27.9731 81.8733 27.9424 81.8062 27.8808C81.7446 27.8137 81.7139 27.7326 81.7139 27.6375V24.1138C81.7139 24.0188 81.7446 23.9405 81.8062 23.8789C81.8733 23.8118 81.9544 23.7783 82.0495 23.7783C82.1445 23.7783 82.2228 23.8118 82.2844 23.8789C82.3515 23.9405 82.385 24.0188 82.385 24.1138V24.1977C82.7374 23.9181 83.1289 23.7783 83.5596 23.7783C83.8672 23.7783 84.1525 23.8482 84.4154 23.988C84.6782 24.1278 84.8964 24.3208 85.0698 24.5669C85.2431 24.3208 85.4613 24.1278 85.7242 23.988C85.987 23.8482 86.2723 23.7783 86.5799 23.7783C87.0833 23.7783 87.5168 23.96 87.8803 24.3236C88.2439 24.6871 88.4256 25.1206 88.4256 25.624V27.6375C88.4256 27.7326 88.3921 27.8137 88.325 27.8808C88.2634 27.9424 88.1851 27.9731 88.0901 27.9731C87.995 27.9731 87.9139 27.9424 87.8468 27.8808C87.7852 27.8137 87.7545 27.7326 87.7545 27.6375Z" fill="black"/>
<path d="M93.2913 27.411V29.735C93.2913 29.83 93.2577 29.9083 93.1906 29.9699C93.1291 30.037 93.0508 30.0705 92.9557 30.0705C92.8606 30.0705 92.7795 30.037 92.7124 29.9699C92.6509 29.9083 92.6201 29.83 92.6201 29.735V25.8757V24.1138C92.6201 24.0188 92.6509 23.9405 92.7124 23.8789C92.7795 23.8118 92.8606 23.7783 92.9557 23.7783C93.0508 23.7783 93.1291 23.8118 93.1906 23.8789C93.2577 23.9405 93.2913 24.0188 93.2913 24.1138V24.3404C93.6828 23.9656 94.1582 23.7783 94.7175 23.7783C95.2992 23.7783 95.7942 23.9824 96.2025 24.3907C96.6108 24.799 96.815 25.294 96.815 25.8757C96.815 26.4574 96.6108 26.9524 96.2025 27.3607C95.7942 27.769 95.2992 27.9731 94.7175 27.9731C94.1582 27.9731 93.6828 27.7857 93.2913 27.411ZM93.7108 26.8825C93.9904 27.1621 94.326 27.3019 94.7175 27.3019C95.1091 27.3019 95.4447 27.1621 95.7243 26.8825C96.004 26.6028 96.1438 26.2672 96.1438 25.8757C96.1438 25.4842 96.004 25.1486 95.7243 24.8689C95.4447 24.5893 95.1091 24.4494 94.7175 24.4494C94.326 24.4494 93.9904 24.5893 93.7108 24.8689C93.4311 25.1486 93.2913 25.4842 93.2913 25.8757C93.2913 26.2672 93.4311 26.6028 93.7108 26.8825Z" fill="black"/>
<path d="M104.533 27.6375V27.411C104.142 27.7857 103.667 27.9731 103.107 27.9731C102.526 27.9731 102.031 27.769 101.622 27.3607C101.214 26.9524 101.01 26.4574 101.01 25.8757V24.1138C101.01 24.0188 101.041 23.9405 101.102 23.8789C101.169 23.8118 101.25 23.7783 101.345 23.7783C101.44 23.7783 101.519 23.8118 101.58 23.8789C101.647 23.9405 101.681 24.0188 101.681 24.1138V25.8757C101.681 26.2672 101.821 26.6028 102.1 26.8825C102.38 27.1621 102.716 27.3019 103.107 27.3019C103.499 27.3019 103.834 27.1621 104.114 26.8825C104.394 26.6028 104.533 26.2672 104.533 25.8757V24.1138C104.533 24.0188 104.564 23.9405 104.626 23.8789C104.693 23.8118 104.774 23.7783 104.869 23.7783C104.964 23.7783 105.042 23.8118 105.104 23.8789C105.171 23.9405 105.205 24.0188 105.205 24.1138V27.6375C105.205 27.7326 105.171 27.8137 105.104 27.8808C105.042 27.9424 104.964 27.9731 104.869 27.9731C104.774 27.9731 104.693 27.9424 104.626 27.8808C104.564 27.8137 104.533 27.7326 104.533 27.6375Z" fill="black"/>
<path d="M110.071 24.4495V26.7147C110.071 26.8769 110.127 27.0167 110.238 27.1342C110.356 27.246 110.496 27.302 110.658 27.302C110.82 27.302 110.96 27.2432 111.077 27.1258C111.139 27.0643 111.214 27.0335 111.304 27.0335C111.399 27.0335 111.48 27.0643 111.547 27.1258C111.614 27.1929 111.648 27.274 111.648 27.3691C111.648 27.4586 111.614 27.5369 111.547 27.604C111.301 27.8501 111.005 27.9731 110.658 27.9731C110.311 27.9731 110.015 27.8501 109.769 27.604C109.522 27.3579 109.399 27.0615 109.399 26.7147V22.4359C109.399 22.3408 109.43 22.2625 109.492 22.201C109.559 22.1339 109.64 22.1003 109.735 22.1003C109.83 22.1003 109.908 22.1339 109.97 22.201C110.037 22.2625 110.071 22.3408 110.071 22.4359V23.7783H110.993C111.089 23.7783 111.167 23.8118 111.228 23.879C111.295 23.9405 111.329 24.0188 111.329 24.1139C111.329 24.209 111.295 24.2901 111.228 24.3572C111.167 24.4187 111.089 24.4495 110.993 24.4495H110.071Z" fill="black"/>
<path d="M119.636 26.2113H116.489C116.568 26.5301 116.733 26.793 116.984 26.9999C117.242 27.2013 117.538 27.3019 117.874 27.3019C118.265 27.3019 118.601 27.1621 118.881 26.8825C118.948 26.8209 119.026 26.7902 119.115 26.7902C119.211 26.7902 119.292 26.8209 119.359 26.8825C119.42 26.9496 119.451 27.0307 119.451 27.1258C119.451 27.2152 119.42 27.2936 119.359 27.3607C118.934 27.769 118.439 27.9731 117.874 27.9731C117.292 27.9731 116.797 27.769 116.389 27.3607C115.981 26.9524 115.776 26.4574 115.776 25.8757C115.776 25.294 115.981 24.799 116.389 24.3907C116.797 23.9824 117.292 23.7783 117.874 23.7783C118.455 23.7783 118.95 23.9824 119.359 24.3907C119.767 24.799 119.971 25.294 119.971 25.8757C119.971 25.9708 119.938 26.0519 119.871 26.119C119.809 26.1805 119.731 26.2113 119.636 26.2113ZM116.489 25.5401H119.258C119.18 25.2213 119.012 24.9612 118.755 24.7599C118.497 24.5529 118.204 24.4494 117.874 24.4494C117.538 24.4494 117.242 24.5529 116.984 24.7599C116.733 24.9612 116.568 25.2213 116.489 25.5401Z" fill="black"/>
<path d="M124.166 27.6375V24.1138C124.166 24.0188 124.197 23.9405 124.258 23.8789C124.325 23.8118 124.407 23.7783 124.502 23.7783C124.597 23.7783 124.675 23.8118 124.737 23.8789C124.804 23.9405 124.837 24.0188 124.837 24.1138V24.3404C125.229 23.9656 125.704 23.7783 126.263 23.7783C126.359 23.7783 126.437 23.8118 126.498 23.8789C126.565 23.9405 126.599 24.0188 126.599 24.1138C126.599 24.2089 126.565 24.29 126.498 24.3571C126.437 24.4187 126.359 24.4494 126.263 24.4494C125.872 24.4494 125.536 24.5893 125.257 24.8689C124.977 25.1486 124.837 25.4842 124.837 25.8757V27.6375C124.837 27.7326 124.804 27.8137 124.737 27.8808C124.675 27.9424 124.597 27.9731 124.502 27.9731C124.407 27.9731 124.325 27.9424 124.258 27.8808C124.197 27.8137 124.166 27.7326 124.166 27.6375Z" fill="black"/>
<path d="M133.016 27.9731H131.213C131.117 27.9731 131.036 27.9424 130.969 27.8808C130.908 27.8137 130.877 27.7326 130.877 27.6375C130.877 27.5424 130.908 27.4641 130.969 27.4026C131.036 27.3355 131.117 27.3019 131.213 27.3019H133.016C133.167 27.3019 133.296 27.2488 133.402 27.1425C133.509 27.0363 133.562 26.9076 133.562 26.7566C133.562 26.6056 133.509 26.477 133.402 26.3707C133.296 26.2644 133.167 26.2113 133.016 26.2113H132.093C131.758 26.2113 131.47 26.0938 131.229 25.8589C130.994 25.6184 130.877 25.3304 130.877 24.9948C130.877 24.6592 130.994 24.3739 131.229 24.139C131.47 23.8985 131.758 23.7783 132.093 23.7783H133.402C133.497 23.7783 133.576 23.8118 133.637 23.8789C133.704 23.9405 133.738 24.0188 133.738 24.1138C133.738 24.2089 133.704 24.29 133.637 24.3571C133.576 24.4187 133.497 24.4494 133.402 24.4494H132.093C131.942 24.4494 131.814 24.5026 131.708 24.6088C131.601 24.7151 131.548 24.8438 131.548 24.9948C131.548 25.1458 131.601 25.2744 131.708 25.3807C131.814 25.487 131.942 25.5401 132.093 25.5401H133.016C133.352 25.5401 133.637 25.6604 133.872 25.9009C134.113 26.1358 134.233 26.421 134.233 26.7566C134.233 27.0922 134.113 27.3802 133.872 27.6208C133.637 27.8557 133.352 27.9731 133.016 27.9731Z" fill="black"/>
</svg>
