<svg width="16" height="16" viewBox="0 0 16 16" fill="none" xmlns="http://www.w3.org/2000/svg">
<g opacity="0.2">
<path d="M8.00033 10C8.70757 10 9.38585 9.71907 9.88594 9.21897C10.386 8.71887 10.667 8.0406 10.667 7.33335V3.33335C10.667 2.62611 10.386 1.94783 9.88594 1.44774C9.38585 0.947639 8.70757 0.666687 8.00033 0.666687C7.29308 0.666687 6.6148 0.947639 6.11471 1.44774C5.61461 1.94783 5.33366 2.62611 5.33366 3.33335V7.33335C5.33366 8.0406 5.61461 8.71887 6.11471 9.21897C6.6148 9.71907 7.29308 10 8.00033 10ZM6.66699 3.33335C6.66699 2.97973 6.80747 2.64059 7.05752 2.39054C7.30756 2.1405 7.6467 2.00002 8.00033 2.00002C8.35395 2.00002 8.69309 2.1405 8.94313 2.39054C9.19318 2.64059 9.33366 2.97973 9.33366 3.33335V7.33335C9.33366 7.68698 9.19318 8.02611 8.94313 8.27616C8.69309 8.52621 8.35395 8.66669 8.00033 8.66669C7.6467 8.66669 7.30756 8.52621 7.05752 8.27616C6.80747 8.02611 6.66699 7.68698 6.66699 7.33335V3.33335ZM13.3337 7.33335C13.3337 7.15654 13.2634 6.98697 13.1384 6.86195C13.0134 6.73692 12.8438 6.66669 12.667 6.66669C12.4902 6.66669 12.3206 6.73692 12.1956 6.86195C12.0706 6.98697 12.0003 7.15654 12.0003 7.33335C12.0003 8.39422 11.5789 9.41163 10.8288 10.1618C10.0786 10.9119 9.06119 11.3334 8.00033 11.3334C6.93946 11.3334 5.92204 10.9119 5.1719 10.1618C4.42175 9.41163 4.00033 8.39422 4.00033 7.33335C4.00033 7.15654 3.93009 6.98697 3.80506 6.86195C3.68004 6.73692 3.51047 6.66669 3.33366 6.66669C3.15685 6.66669 2.98728 6.73692 2.86225 6.86195C2.73723 6.98697 2.66699 7.15654 2.66699 7.33335C2.66817 8.63155 3.14281 9.88474 4.00192 10.858C4.86104 11.8313 6.04565 12.4577 7.33366 12.62V14H6.00033C5.82351 14 5.65395 14.0703 5.52892 14.1953C5.4039 14.3203 5.33366 14.4899 5.33366 14.6667C5.33366 14.8435 5.4039 15.0131 5.52892 15.1381C5.65395 15.2631 5.82351 15.3334 6.00033 15.3334H10.0003C10.1771 15.3334 10.3467 15.2631 10.4717 15.1381C10.5968 15.0131 10.667 14.8435 10.667 14.6667C10.667 14.4899 10.5968 14.3203 10.4717 14.1953C10.3467 14.0703 10.1771 14 10.0003 14H8.66699V12.62C9.95501 12.4577 11.1396 11.8313 11.9987 10.858C12.8578 9.88474 13.3325 8.63155 13.3337 7.33335Z" fill="#041A1A"/>
</g>
</svg>
